Coordinates
version=1
nRows=6
nColumns=63
inDegrees=yes

Units are S.I. units (second, meters, Newtons, ...)
If the header above contains a line with 'inDegrees', this indicates whether rotational values are in degrees (yes) or radians (no).

endheader
time	pelvis_tilt	pelvis_list	pelvis_rotation	pelvis_tx	pelvis_ty	pelvis_tz	hip_flexion_r	hip_adduction_r	hip_rotation_r	knee_angle_r	knee_angle_r_beta	ankle_angle_r	subtalar_angle_r	mtp_angle_r	hip_flexion_l	hip_adduction_l	hip_rotation_l	knee_angle_l	knee_angle_l_beta	ankle_angle_l	subtalar_angle_l	mtp_angle_l	L5_S1_Flex_Ext	L5_S1_Lat_Bending	L5_S1_axial_rotation	L4_L5_Flex_Ext	L4_L5_Lat_Bending	L4_L5_axial_rotation	L3_L4_Flex_Ext	L3_L4_Lat_Bending	L3_L4_axial_rotation	L2_L3_Flex_Ext	L2_L3_Lat_Bending	L2_L3_axial_rotation	L1_L2_Flex_Ext	L1_L2_Lat_Bending	L1_L2_axial_rotation	L1_T12_Flex_Ext	L1_T12_Lat_Bending	L1_T12_axial_rotation	Abs_r3	Abs_r2	Abs_r1	Abs_t1	Abs_t2	neck_flexion	neck_bending	neck_rotation	arm_flex_r	arm_add_r	arm_rot_r	elbow_flex_r	pro_sup_r	wrist_flex_r	wrist_dev_r	arm_flex_l	arm_add_l	arm_rot_l	elbow_flex_l	pro_sup_l	wrist_flex_l	wrist_dev_l
2.389831	-2.366025	-6.475305	73.442180	-0.040767	0.856462	0.566254	0.931454	-2.842756	15.971480	11.243430	0.196235	26.670765	-2.265910	0.000000	-0.929572	1.587349	-28.728087	11.410937	0.199158	36.521535	11.635245	0.000000	-0.405752	-0.866477	0.398786	-0.753523	-1.152415	0.423710	-0.666610	-2.106753	0.423710	-0.463734	-2.106753	0.348938	-0.376782	-1.766921	0.324014	-0.231847	-1.342173	0.299089	-2.898248	-9.801765	2.217928	0.000000	0.000000	9.708144	10.137233	-15.779795	3.307474	-8.838486	13.547594	129.106423	88.984502	2.237269	19.676132	10.852864	-18.950957	125.181819	5.940869	2.879765	-6.990463	-12.768449
2.406780	-2.436241	-6.498274	73.230622	-0.040135	0.855995	0.567704	1.220469	-2.820105	16.372169	11.455169	0.199930	27.043580	-2.282492	0.000000	-0.748292	1.583108	-28.730410	11.431746	0.199522	36.926953	11.787931	0.000000	-0.408614	-0.906881	0.516601	-0.758837	-1.206151	0.548889	-0.671312	-2.204989	0.548889	-0.467005	-2.204989	0.452026	-0.379439	-1.849311	0.419739	-0.233482	-1.404758	0.387451	-2.918687	-10.258815	2.873181	0.000000	0.000000	9.766804	9.987240	-15.693795	0.535679	-8.537941	14.135476	123.657089	88.911782	-2.040949	18.679847	11.074007	-19.353970	123.138732	6.781614	3.265205	-6.613995	-12.563501
2.423729	-2.499549	-6.490960	73.128171	-0.039605	0.855516	0.568905	1.414330	-2.796560	16.719309	11.598644	0.202435	27.446522	-2.336393	0.000000	-0.628770	1.576262	-28.733320	11.425818	0.199418	37.316273	12.029338	0.000000	-0.413167	-0.946618	0.603735	-0.767292	-1.259002	0.641469	-0.678791	-2.301607	0.641469	-0.472208	-2.301607	0.528268	-0.383666	-1.930344	0.490535	-0.236083	-1.466312	0.452801	-2.951207	-10.708334	3.357795	0.000000	0.000000	10.014394	9.779891	-15.529320	-1.726301	-8.242560	14.576222	117.763274	88.806538	-6.026775	17.707056	11.194188	-19.761954	121.451392	7.523460	3.686056	-6.316188	-12.261648
2.440678	-2.552698	-6.472383	73.090517	-0.039212	0.855008	0.569781	1.533326	-2.780079	17.015951	11.677922	0.203818	27.875508	-2.389057	0.000000	-0.573075	1.582558	-28.754869	11.360696	0.198282	37.655142	12.309795	0.000000	-0.416580	-0.983523	0.686143	-0.773630	-1.308086	0.729027	-0.684399	-2.391338	0.729027	-0.476109	-2.391338	0.600375	-0.386836	-2.005600	0.557491	-0.238034	-1.523477	0.514607	-2.975588	-11.125809	3.816121	0.000000	0.000000	10.468386	9.479420	-15.436668	-3.532450	-8.045119	14.760949	111.615050	88.690173	-9.464062	16.568466	11.256137	-20.131845	120.100839	8.143068	4.125272	-6.011492	-11.746512
2.457627	-2.582898	-6.453076	73.142402	-0.039015	0.854466	0.570295	1.570909	-2.756918	17.244858	11.680992	0.203872	28.300429	-2.465375	0.000000	-0.574135	1.585451	-28.801783	11.243731	0.196240	37.930505	12.656035	0.000000	-0.418379	-1.013791	0.758064	-0.776972	-1.348342	0.805443	-0.687355	-2.464932	0.805443	-0.478166	-2.464932	0.663306	-0.388507	-2.067323	0.615927	-0.239062	-1.570363	0.568548	-2.988441	-11.468210	4.216123	0.000000	0.000000	11.178616	9.123232	-15.302176	-4.870441	-7.962008	14.796226	105.388067	88.560090	-12.285483	15.343796	11.249865	-20.433664	119.293719	8.602351	4.505706	-5.738527	-11.067632
2.474576	-2.581401	-6.442664	73.298148	-0.039082	0.853898	0.570417	1.524345	-2.722824	17.354697	11.595233	0.202375	28.691550	-2.536580	0.000000	-0.628247	1.581468	-28.819868	11.066259	0.193143	38.119683	13.026520	0.000000	-0.417324	-1.034818	0.821208	-0.775012	-1.376308	0.872533	-0.685621	-2.516058	0.872533	-0.476959	-2.516058	0.718557	-0.387527	-2.110202	0.667231	-0.238459	-1.602934	0.615906	-2.980901	-11.706073	4.567312	0.000000	0.000000	12.135338	8.729602	-15.122109	-5.821128	-7.989312	14.595431	99.281236	88.429185	-14.076804	14.234256	11.167849	-20.661109	118.741230	8.933589	4.907539	-5.531227	-10.230699
